<?xml version="1.0" encoding="utf-8"?>

<!-- Uploaded to: SVG Repo, www.svgrepo.com, Generator: SVG Repo Mixer Tools -->
<svg version="1.1" id="Icons" xmlns="http://www.w3.org/2000/svg" xmlns:xlink="http://www.w3.org/1999/xlink" 
	 viewBox="0 0 32 32" xml:space="preserve">
<style type="text/css">
	.st0{fill:none;stroke:#000000;stroke-width:2;stroke-linecap:round;stroke-linejoin:round;stroke-miterlimit:10;}
	.st1{fill:none;stroke:#000000;stroke-width:2;stroke-linecap:round;stroke-linejoin:round;}
	.st2{fill:none;stroke:#000000;stroke-width:2;stroke-linecap:round;stroke-linejoin:round;stroke-dasharray:5.2066,0;}
</style>
<path class="st0" d="M26.5,14.1C26,14,25.4,14.4,24.9,15V9.7C24.9,6,21.8,3,18,3h-1c-1.7,0-3.2,0.6-4.4,1.6C12,4.2,11.3,4,10.6,4
	C8.7,4,7.1,5.5,7.1,7.3V15c-0.5-0.7-1.1-1.1-1.6-1c-1.1,0.2-1.7,2-1.4,4.1c0.4,2.1,1.5,3.7,2.7,3.5c0.4-0.1,0.6-0.3,0.9-0.6
	c1.2,4.6,4.5,8,8.4,8c3.9,0,7.1-3.3,8.4-8c0.2,0.3,0.5,0.6,0.9,0.6c1.1,0.2,2.3-1.4,2.7-3.5C28.3,16.1,27.6,14.2,26.5,14.1z"/>
<path class="st0" d="M20,13c0-2.2-1.8-4-4-4s-4,1.8-4,4c0,1.5,0.8,2.8,2,3.4V19h4v-2.6C19.2,15.8,20,14.5,20,13z"/>
<path class="st0" d="M18,21c0,1.1-0.9,2-2,2s-2-0.9-2-2"/>
</svg>