<?xml version="1.0" standalone="no"?>
<!DOCTYPE svg PUBLIC "-//W3C//DTD SVG 20010904//EN"
 "http://www.w3.org/TR/2001/REC-SVG-20010904/DTD/svg10.dtd">
<svg version="1.0" xmlns="http://www.w3.org/2000/svg"
 width="200.000000pt" height="200.000000pt" viewBox="0 0 200.000000 200.000000"
 preserveAspectRatio="xMidYMid meet">
<metadata>
Created by potrace 1.14, written by Peter Selinger 2001-2017
</metadata>
<g transform="translate(0.000000,200.000000) scale(0.100000,-0.100000)"
fill="#000000" stroke="none">
<path d="M325 1948 c-15 -45 -19 -100 -24 -353 -6 -283 -8 -302 -28 -342 -27
-50 -63 -80 -114 -93 l-39 -11 0 -149 0 -149 39 -11 c51 -13 87 -43 114 -93
20 -40 22 -59 28 -342 5 -253 9 -308 24 -352 l18 -53 279 0 278 0 0 44 0 43
-72 5 c-89 6 -130 25 -154 75 -17 33 -20 72 -25 318 -7 312 -13 349 -73 426
-19 24 -48 53 -65 64 -17 11 -31 22 -31 25 0 3 14 14 31 25 17 11 46 40 65 64
60 77 66 114 73 426 5 246 8 285 25 318 24 50 65 69 154 75 l72 5 0 43 0 44
-278 0 -279 0 -18 -52z"/>
<path d="M975 1720 c-49 -5 -110 -13 -135 -18 l-45 -8 -3 -712 -2 -712 160 0
160 0 0 240 0 240 98 0 c344 0 568 100 644 288 20 51 23 74 23 207 0 148 0
151 -32 217 -57 121 -162 196 -336 239 -96 24 -381 34 -532 19z m473 -306 c70
-36 102 -89 102 -170 0 -146 -83 -202 -312 -211 l-128 -6 0 206 c0 154 3 207
13 211 6 3 69 4 140 2 116 -3 132 -6 185 -32z"/>
</g>
</svg>
