<?xml version="1.0" standalone="no"?>
<!DOCTYPE svg PUBLIC "-//W3C//DTD SVG 20010904//EN"
 "http://www.w3.org/TR/2001/REC-SVG-20010904/DTD/svg10.dtd">
<svg version="1.0" xmlns="http://www.w3.org/2000/svg"
 width="400.000000pt" height="400.000000pt" viewBox="0 0 400.000000 400.000000"
 preserveAspectRatio="xMidYMid meet">
<metadata>
Created by potrace 1.14, written by Peter Selinger 2001-2017
</metadata>
<g transform="translate(0.000000,400.000000) scale(0.100000,-0.100000)"
fill="#000000" stroke="none">
<path d="M2148 3785 c-2 -2 -62 -6 -134 -9 -72 -4 -142 -9 -155 -11 -13 -2
-51 -7 -84 -10 -33 -3 -69 -8 -80 -10 -11 -3 -36 -7 -55 -10 -45 -6 -66 -11
-115 -24 l-40 -10 0 -1736 0 -1735 248 0 247 0 0 655 0 655 283 1 c155 0 298
2 317 4 19 2 71 6 115 9 103 8 168 15 230 26 28 5 66 12 85 15 131 22 314 84
437 150 185 98 314 228 403 403 82 164 110 305 105 537 -3 171 -5 186 -36 309
-46 181 -161 359 -309 480 -148 120 -413 230 -655 272 -22 4 -49 8 -60 10
-117 22 -275 31 -512 32 -127 0 -233 -1 -235 -3z m582 -439 c19 -3 51 -8 70
-11 106 -15 200 -43 300 -92 188 -91 311 -257 334 -453 8 -64 9 -220 2 -241
-3 -8 -7 -31 -10 -52 -9 -57 -42 -144 -78 -205 -98 -163 -317 -274 -603 -307
-33 -4 -71 -9 -85 -12 -14 -3 -172 -7 -353 -10 l-327 -5 2 693 3 694 55 3 c30
1 62 4 70 6 27 5 584 -2 620 -8z"/>
<path d="M977 3724 c-1 -1 -28 -5 -59 -8 -201 -23 -375 -113 -459 -236 -39
-57 -76 -155 -85 -224 -3 -23 -7 -52 -10 -66 -2 -14 -4 -178 -4 -366 -1 -245
-5 -355 -14 -390 -36 -137 -110 -205 -240 -220 l-51 -6 0 -203 c0 -112 2 -206
5 -208 3 -3 27 -8 54 -11 97 -13 159 -54 198 -131 43 -83 47 -122 48 -474 0
-353 3 -401 26 -492 40 -162 126 -264 280 -335 105 -49 229 -73 407 -81 140
-6 147 -5 148 13 3 65 1 405 -2 408 -2 2 -47 6 -99 8 -135 7 -184 32 -225 113
l-30 60 -2 275 c-3 462 -10 533 -63 653 -20 45 -98 134 -155 176 l-30 22 24
16 c112 80 184 193 207 328 10 64 13 141 15 428 2 337 8 388 52 451 32 45 98
69 210 74 80 4 97 7 98 21 1 20 1 393 0 404 -1 7 -236 8 -244 1z"/>
</g>
</svg>
